<?xml version="1.0" encoding="UTF-8"?>
<svg width="881px" height="270px" viewBox="0 0 881 270" version="1.1" xmlns="http://www.w3.org/2000/svg" xmlns:xlink="http://www.w3.org/1999/xlink">
    <title>画板</title>
    <g id="画板" stroke="none" stroke-width="1" fill="none" fill-rule="evenodd">
        <polygon id="矩形" fill="#000000" points="47.4778047 0.365079365 111.507937 0.365079365 63.8888889 270.206349 -0.141242938 270.206349"></polygon>
        <path d="M881.349206,0.365079365 L869.444444,55.9206349 L796.420403,55.9200794 L759.656085,270.206349 L694.84127,270.206349 L731.605403,55.9200794 L657.704403,55.9206349 L669.609164,0.365079365 L881.349206,0.365079365 Z" id="形状结合" fill="#000000"></path>
        <path d="M286.292306,0.365079365 C303.234357,0.365079365 319.521306,3.12849995 334.271607,10.7863543 C355.976015,22.0545437 368.887242,41.8828268 369.426831,68.2075151 L369.444444,69.9335317 L314.032339,69.9335317 C314.032339,55.4252531 305.43213,50.9603175 286.292306,50.9603175 C257.629992,50.9603175 221.867113,89.8025825 212.679652,139.49661 C211.961943,143.378628 211.426556,147.164592 211.061525,150.843995 L210.790082,153.971427 L210.600404,157.045196 C208.758372,194.618034 225.283,217.154226 245.757974,219.611111 C274,223 289.900331,204.362038 290.915116,194.845879 L290.943962,194.313492 L346.356067,194.313492 C346.356067,219.072187 330.884081,240.964887 305.740554,255.037466 C287.075743,265.483972 262.885005,270.206349 245.757974,270.206349 C180.28294,270.206349 144.369145,205.022266 158.040591,131.074818 C171.239625,59.6826063 225.854502,0.365079365 286.292306,0.365079365 Z" id="路径" fill="#000000" fill-rule="nonzero"></path>
        <polygon id="路径-13" fill="#000000" fill-rule="nonzero" points="498.783462 0.365079365 571.442737 0.365079365 615.47619 270.178283 560.230289 270.178283 551.984127 222.587302 492.460317 222.587302 512.301587 174.968254 544.047619 174.968254 528.557425 63.4071485 433.543619 270.150217 369.444444 270.206349"></polygon>
    </g>
</svg>